# xmcd
#
# Track frame offsets: 
#        150
#        36132
#        60437
#        83981
#        135482
#        176352
#        202175
#        236428
#        257555
#        278589
#
# Disc length: 4634 seconds
#
# Revision: 0
# Processed by: cddbd v1.5.2PL0 Copyright (c) Steve Scherf et al.
# Submitted via: ExactAudioCopy v0.95b3
#
DISCID=8012180a
DTITLE=Led Zeppelin  - High Heeled Sneakers [CD2)
DYEAR=1900
DGENRE=
TTITLE0=That's The Way
TTITLE1=Going To California
TTITLE2=What Is And What Should Never Be
TTITLE3=Moby Dick
TTITLE4=Stairway To Heaven
TTITLE5=Celebration Day
TTITLE6=That's The Way
TTITLE7=Going To California
TTITLE8=What Is And What Should Never Be
TTITLE9=Moby Dick
EXTD=
EXTT0=
EXTT1=
EXTT2=
EXTT3=
EXTT4=
EXTT5=
EXTT6=
EXTT7=
EXTT8=
EXTT9=
PLAYORDER=
